<svg width="675" height="202" xmlns="http://www.w3.org/2000/svg" viewBox="62.35 47.68 675.31 201.97">
<g transform="scale(0.5) translate(0.000000,594.000000) scale(0.100000,-0.100000)" fill="#C71619"><path d="M3273 4720 c-70 -14 -102 -38 -248 -179 -77 -75 -230 -221 -340 -325
-218 -207 -289 -274 -685 -656 -392 -377 -442 -429 -469 -485 -30 -60 -32
-129 -5 -175 16 -27 1419 -1333 1580 -1470 79 -68 129 -92 204 -97 117 -9 118
-8 704 531 149 137 303 279 341 315 89 83 132 123 442 409 268 248 303 291
303 374 0 91 4 87 -831 920 -440 438 -808 798 -832 812 -50 29 -106 37 -164
26z m607 -1035 c165 -35 281 -124 349 -269 56 -118 55 -238 -2 -416 l-24 -75
-140 -3 -140 -3 -40 53 c-22 29 -45 63 -52 76 -17 32 -29 28 -92 -34 -53 -53
-79 -62 -79 -29 0 8 -10 36 -21 62 -12 27 -26 59 -32 73 -5 14 -13 33 -18 42
-5 10 -9 23 -10 30 0 7 -15 45 -33 83 l-33 70 -16 -31 c-9 -17 -41 -118 -72
-225 -31 -107 -70 -239 -87 -294 -16 -55 -32 -110 -35 -122 -8 -34 -22 -28
-42 20 -10 23 -30 68 -45 100 -94 207 -130 287 -157 349 -28 66 -40 71 -67 26
-10 -18 -52 -89 -92 -158 -41 -69 -78 -129 -84 -133 -11 -8 -402 -1 -415 8
-20 12 -73 142 -86 209 -19 98 -19 144 1 226 75 319 364 441 754 318 36 -12
93 -34 128 -49 81 -38 100 -37 185 10 164 89 339 119 497 86z m-334 -473 c27
-62 31 -73 72 -182 25 -69 44 -106 55 -108 9 -2 37 18 65 47 26 28 53 51 59
51 6 0 33 -29 59 -65 l48 -65 132 0 c73 0 135 -4 138 -8 18 -30 -176 -269
-312 -383 -84 -70 -517 -370 -556 -385 -47 -18 -452 264 -640 446 -103 99
-226 245 -226 267 0 10 41 13 188 13 183 0 189 1 209 23 17 19 67 101 149 245
10 17 24 32 31 32 13 0 54 -82 143 -285 29 -66 64 -145 77 -175 14 -30 29 -65
34 -78 5 -13 15 -22 22 -19 6 2 43 105 80 228 116 378 139 449 148 443 5 -3
16 -22 25 -42z M10392 3600 c-163 -34 -313 -204 -357 -406 -26 -115 -17 -303
19 -407 134 -391 543 -466 760 -139 80 120 101 200 101 382 0 144 -2 161 -28
233 -85 243 -288 381 -495 337z m185 -81 c124 -69 183 -230 183 -506 0 -270
-61 -424 -195 -487 -86 -41 -217 -12 -270 59 -80 108 -106 200 -112 405 -9
277 44 444 165 521 60 38 169 42 229 8z M13105 3596 c-263 -65 -443 -430 -365
-739 55 -220 183 -356 378 -403 128 -30 297 -1 409 70 l33 21 0 215 c0 195 2
218 19 247 13 21 29 33 48 35 17 2 29 10 31 21 3 16 -9 17 -175 15 -150 -3
-178 -5 -178 -18 0 -9 11 -16 25 -18 83 -10 90 -31 90 -278 l0 -205 -55 -25
c-202 -93 -387 33 -461 311 -25 94 -25 303 -1 393 55 205 160 305 322 306 70
1 86 -2 126 -26 76 -45 130 -118 159 -215 16 -52 40 -58 40 -10 -2 103 -20
301 -28 309 -7 7 -15 -1 -26 -26 -18 -43 -28 -44 -101 -11 -96 44 -194 55
-290 31z M5470 3567 c0 -7 18 -17 42 -23 27 -6 49 -19 62 -37 20 -28 21 -41
24 -463 2 -287 -1 -447 -8 -474 -12 -43 -48 -70 -95 -70 -16 0 -25 -6 -25 -15
0 -13 24 -15 160 -15 136 0 160 2 160 15 0 9 -9 15 -25 15 -41 0 -82 27 -94
61 -13 38 -16 799 -3 799 5 0 16 -21 24 -47 9 -27 34 -93 56 -148 22 -55 56
-145 77 -200 20 -55 63 -167 95 -250 32 -82 64 -167 71 -188 15 -43 36 -65 48
-51 4 5 40 95 79 199 166 445 253 670 262 679 7 7 10 -120 8 -396 -3 -399 -3
-408 -24 -428 -12 -12 -40 -24 -63 -27 -26 -4 -41 -11 -41 -20 0 -11 34 -13
198 -11 123 2 197 7 197 13 0 6 -11 11 -25 13 -48 6 -78 24 -92 55 -15 36 -20
888 -5 939 8 31 36 49 85 57 18 3 33 11 32 16 0 6 -51 10 -131 10 l-131 0 -23
-60 c-13 -33 -67 -175 -119 -315 -156 -419 -173 -461 -182 -462 -9 0 -13 8
-104 247 -84 219 -130 340 -183 475 l-45 115 -131 3 c-104 2 -131 0 -131 -11z
M6706 3571 c-8 -12 1 -18 46 -26 84 -16 90 -56 86 -572 -3 -311 -6 -404 -17
-425 -14 -27 -46 -45 -91 -50 -14 -2 -24 -7 -22 -13 1 -6 62 -10 157 -10 96 0
156 4 156 10 1 6 -15 13 -36 16 -24 4 -48 17 -62 33 l-23 27 0 405 c0 268 3
403 10 399 6 -3 10 -12 10 -19 0 -7 9 -35 19 -62 75 -192 114 -292 146 -379
20 -55 63 -167 94 -250 32 -82 61 -158 64 -167 9 -27 33 -22 45 10 6 15 41
108 78 207 36 99 86 230 109 290 24 61 65 167 91 238 26 70 51 127 56 127 10
0 9 -709 -1 -773 -10 -59 -26 -77 -80 -84 -25 -4 -41 -11 -41 -19 0 -11 37
-14 195 -14 167 0 195 2 195 15 0 9 -9 15 -25 15 -41 0 -82 27 -94 61 -7 22
-11 175 -11 468 0 503 -1 497 79 517 25 6 47 16 49 22 3 9 -31 12 -127 12
l-131 0 -15 -32 c-13 -30 -211 -554 -274 -728 -16 -41 -33 -75 -40 -75 -7 0
-28 43 -47 95 -33 89 -40 107 -64 163 -5 12 -23 60 -40 107 -18 47 -53 141
-80 210 -26 69 -59 154 -73 190 l-25 65 -130 3 c-76 1 -133 -1 -136 -7z M8292
3568 c3 -7 21 -16 42 -19 21 -3 47 -16 59 -28 22 -21 22 -25 25 -478 2 -332
-1 -465 -9 -486 -13 -31 -55 -57 -94 -57 -16 0 -25 -6 -25 -15 0 -13 26 -15
198 -13 123 2 197 7 197 13 0 6 -11 11 -25 13 -40 5 -75 21 -87 42 -16 24 -19
433 -5 438 6 2 40 -1 77 -6 194 -26 318 65 345 255 21 155 -58 288 -198 335
-70 23 -507 28 -500 6z m428 -74 c148 -75 154 -374 10 -452 -38 -20 -54 -23
-100 -17 -30 3 -58 9 -63 14 -9 9 -12 450 -3 459 22 21 110 20 156 -4z M9065
3570 c-7 -11 3 -16 58 -25 74 -12 72 -1 72 -510 0 -353 -3 -457 -13 -482 -14
-31 -44 -49 -92 -55 -14 -2 -25 -7 -25 -13 0 -6 74 -11 198 -13 163 -2 197 0
197 11 0 9 -15 16 -41 20 -82 11 -84 17 -84 265 l0 217 45 0 45 0 147 -245
c80 -135 152 -251 158 -257 17 -20 250 -18 250 2 0 8 -16 19 -37 24 -53 15
-96 43 -128 86 -39 51 -245 396 -245 410 0 7 18 18 40 25 201 66 234 390 52
504 -20 12 -58 28 -84 34 -59 15 -504 16 -513 2z m428 -62 c85 -26 130 -101
131 -222 1 -96 -28 -160 -92 -200 -42 -26 -133 -50 -172 -45 l-25 4 0 230 0
230 30 6 c49 11 85 10 128 -3z M11027 3573 c-14 -13 -8 -255 5 -251 7 3 16 24
20 47 18 104 68 141 194 141 57 0 83 -4 85 -12 2 -7 2 -223 -1 -480 -5 -463
-5 -468 -27 -489 -12 -12 -39 -25 -60 -28 -21 -4 -37 -11 -35 -16 3 -14 381
-13 385 0 1 6 -9 11 -23 13 -49 6 -79 24 -89 54 -7 20 -11 193 -11 496 l0 464
100 -4 c89 -3 102 -6 126 -28 34 -32 52 -68 60 -119 4 -25 12 -41 20 -41 16 0
17 30 8 168 l-7 92 -372 0 c-204 0 -375 -3 -378 -7z M11855 3570 c-7 -11 3
-16 57 -25 70 -11 68 4 68 -516 0 -454 -1 -467 -20 -492 -13 -16 -36 -29 -61
-34 -23 -4 -40 -12 -40 -18 1 -6 126 -10 354 -10 l352 0 12 40 c6 22 23 79 37
126 14 47 26 91 26 98 0 27 -26 3 -55 -50 -77 -141 -91 -149 -276 -156 -118
-5 -142 -4 -164 11 l-25 16 0 230 0 230 131 0 131 0 32 -32 c24 -24 35 -46 40
-80 5 -32 12 -48 22 -48 12 0 14 31 14 190 0 146 -3 190 -13 190 -7 0 -18 -23
-25 -52 -21 -93 -64 -112 -237 -106 l-90 3 -3 218 -2 217 155 0 c202 0 235
-16 257 -122 9 -43 16 -58 27 -56 12 3 15 21 13 103 -2 55 -5 108 -8 118 -5
16 -31 17 -354 17 -223 0 -351 -4 -355 -10z M13710 3565 c0 -10 10 -15 34 -15
22 0 45 -9 63 -24 l28 -24 3 -449 c2 -305 0 -460 -8 -485 -12 -41 -50 -68 -95
-68 -16 0 -25 -6 -25 -15 0 -13 46 -15 355 -15 l354 0 21 73 c12 39 30 100 40
134 17 59 17 73 -1 73 -4 0 -25 -32 -45 -71 -56 -107 -96 -136 -199 -144 -111
-9 -231 -3 -247 13 -10 10 -13 69 -13 240 l0 227 120 3 c165 4 189 -8 210
-100 6 -29 17 -54 23 -56 9 -3 12 44 12 188 0 148 -3 191 -12 188 -7 -3 -16
-24 -20 -48 -16 -94 -55 -112 -225 -108 l-108 3 0 215 0 215 145 3 c206 4 250
-15 266 -115 8 -51 20 -71 33 -58 7 7 8 51 4 123 l-6 112 -354 0 c-307 0 -353
-2 -353 -15z M8200 2148 c-3 -3 -617 -8 -1364 -12 -1396 -6 -1401 -6 -1363
-43 9 -8 590 -13 2277 -19 1246 -4 2303 -8 2350 -9 230 -5 4391 -7 4396 -2 4
3 4 12 1 20 -8 22 -215 26 -2062 43 -374 4 -698 8 -720 9 -76 5 -3510 17
-3515 13z M11981 1792 c-5 -9 -12 -35 -16 -57 l-6 -40 40 45 c23 25 41 51 41
58 0 19 -48 14 -59 -6z M6965 1651 c-3 -2 4 -10 15 -18 19 -13 20 -26 20 -188
0 -181 -3 -205 -26 -205 -8 0 -14 -4 -14 -10 0 -6 27 -10 61 -10 l62 0 -27 25
c-26 24 -26 26 -26 160 0 133 9 166 30 110 38 -100 131 -286 141 -283 10 3
116 227 139 292 18 51 23 20 21 -126 -2 -134 -3 -144 -24 -160 -21 -17 -20
-18 56 -18 45 0 77 4 77 10 0 6 -6 10 -14 10 -23 0 -26 24 -26 205 0 168 1
174 22 189 21 15 20 16 -33 16 l-56 0 -28 -62 c-15 -35 -46 -103 -68 -153 -47
-108 -53 -116 -66 -84 -11 29 -95 211 -119 259 -16 31 -24 36 -65 40 -26 4
-50 4 -52 1z M7524 1651 c-2 -2 5 -10 16 -18 18 -13 20 -26 20 -150 0 -161 11
-205 59 -241 46 -36 163 -39 208 -6 53 39 63 75 63 225 0 121 2 139 20 162
l20 25 -51 4 c-59 4 -66 0 -39 -19 18 -13 20 -26 20 -152 0 -165 -8 -195 -61
-221 -46 -24 -80 -25 -120 -5 -43 23 -51 53 -57 207 -5 136 -4 136 21 162 14
14 25 26 24 27 -12 3 -140 3 -143 0z M7994 1651 c-2 -2 5 -10 16 -18 19 -13
20 -26 20 -188 0 -181 -3 -205 -26 -205 -8 0 -14 -4 -14 -10 0 -6 32 -10 78
-9 73 0 76 1 55 16 -22 15 -23 20 -23 199 0 178 1 183 22 198 12 9 20 16 18
17 -30 3 -143 3 -146 0z M8695 1646 c-135 -61 -169 -265 -61 -372 136 -137
348 -35 345 165 -1 93 -36 155 -114 203 -36 22 -125 24 -170 4z m123 -21 c63
-25 87 -79 87 -190 -1 -134 -42 -195 -133 -195 -38 0 -49 5 -78 35 -80 86 -65
297 25 345 44 24 51 24 99 5z M9643 1652 c-48 -4 -49 -4 -93 -102 -18 -41 -49
-109 -68 -150 l-34 -75 -29 60 c-15 33 -49 106 -75 163 l-47 102 -55 0 c-53 0
-54 0 -32 -18 21 -17 22 -24 21 -197 -1 -174 -2 -181 -24 -197 -21 -17 -21
-18 43 -18 l65 0 -25 19 c-23 19 -25 25 -28 156 -5 157 4 180 38 103 12 -29
38 -84 56 -123 17 -38 39 -87 48 -107 21 -51 32 -48 63 20 14 31 45 99 69 150
24 52 44 98 44 103 0 5 5 9 10 9 6 0 10 -55 10 -144 0 -138 -1 -146 -22 -160
-32 -23 -19 -27 63 -24 55 2 69 6 54 12 -33 16 -35 24 -35 208 0 168 1 178 21
191 25 18 16 23 -38 19z M9940 1636 c-44 -116 -155 -365 -171 -382 -28 -30
-24 -34 31 -34 53 0 60 5 33 25 -15 12 -15 16 3 61 l20 49 84 0 84 0 20 -49
c18 -45 18 -49 3 -61 -29 -21 -20 -25 53 -25 72 0 84 6 51 27 -10 6 -33 47
-51 90 -18 43 -39 94 -47 113 -25 58 -31 73 -54 130 -31 78 -45 91 -59 56z
m36 -161 c31 -76 27 -85 -36 -85 -52 0 -73 17 -53 43 6 6 18 34 28 60 10 26
22 46 28 44 5 -1 20 -29 33 -62z M10224 1651 c-2 -2 5 -10 16 -18 19 -13 20
-26 20 -197 0 -179 -1 -184 -22 -199 -22 -15 -19 -16 55 -16 45 -1 77 3 77 9
0 6 -6 10 -14 10 -23 0 -26 24 -26 205 0 165 1 175 21 189 19 13 16 15 -51 18
-39 1 -74 1 -76 -1z M10488 1638 c-80 -69 -62 -141 55 -215 101 -65 117 -81
117 -119 0 -89 -145 -83 -186 7 -24 55 -34 48 -34 -24 l0 -63 43 0 c23 -1 63
-5 88 -9 81 -13 149 42 149 120 0 39 -5 48 -44 82 -24 21 -56 45 -72 53 -85
42 -120 86 -101 128 30 65 153 27 173 -55 10 -40 23 -15 23 47 l-1 58 -31 1
c-18 0 -59 3 -92 6 -53 5 -63 3 -87 -17z M10994 1628 c-31 -29 -37 -41 -37
-74 0 -56 25 -88 104 -135 119 -71 141 -107 94 -154 -47 -48 -140 -20 -173 53
l-17 37 -3 -64 c-3 -67 1 -82 19 -64 8 8 22 7 51 -3 84 -29 156 -7 189 59 37
72 13 115 -106 187 -106 64 -128 97 -91 135 48 48 143 18 160 -50 11 -45 26
-26 26 34 l0 60 -32 0 c-18 0 -59 3 -90 7 -54 5 -58 4 -94 -28z M11471 1619
c-19 -43 -105 -249 -134 -321 -9 -20 -25 -43 -36 -50 -34 -21 -25 -28 34 -28
58 0 66 5 38 25 -17 12 -16 16 3 62 l20 48 82 3 82 3 19 -43 c17 -42 18 -78 0
-78 -5 0 -9 -4 -9 -10 0 -6 30 -10 70 -10 72 0 84 6 50 27 -22 14 -35 41 -115
243 -73 181 -78 188 -104 129z m25 -96 c3 -10 15 -39 26 -64 26 -59 19 -69
-43 -69 -63 0 -67 10 -32 88 28 64 40 75 49 45z M12103 1652 c-52 -3 -52 -3
-32 -23 17 -17 19 -33 19 -146 0 -168 -9 -199 -63 -224 -66 -30 -111 -22 -149
25 -26 31 -27 320 -1 348 15 17 13 18 -57 18 -66 0 -72 -1 -54 -14 17 -13 20
-31 25 -173 6 -171 12 -193 67 -230 40 -27 161 -25 199 3 53 39 63 74 63 231
0 140 0 142 25 161 31 25 25 28 -42 24z M12214 1651 c-2 -2 8 -12 21 -23 25
-19 25 -20 25 -194 0 -163 -1 -175 -20 -186 -37 -23 -21 -28 88 -28 205 0 292
65 292 220 0 89 -36 151 -110 191 -23 12 -286 30 -296 20z m246 -46 c60 -31
85 -80 85 -164 0 -127 -59 -195 -165 -189 l-55 3 -3 170 c-1 93 0 175 2 182 7
18 100 17 136 -2z M12673 1648 c-2 -5 3 -8 11 -8 29 0 36 -38 36 -204 0 -172
-3 -196 -26 -196 -8 0 -14 -4 -14 -10 0 -16 297 -13 307 3 13 20 32 81 27 86
-2 2 -19 -12 -38 -32 -33 -36 -35 -37 -109 -37 -88 0 -87 -1 -87 106 0 52 4
74 13 75 64 6 113 -3 134 -23 l23 -21 0 64 0 64 -23 -28 c-20 -26 -27 -28 -82
-25 l-60 3 -3 78 -3 77 86 0 c81 0 86 -1 97 -25 6 -14 15 -25 20 -25 13 0 9
70 -4 75 -23 8 -300 10 -305 3z M8197 1643 c-4 -3 -7 -25 -7 -47 l0 -41 26 33
c22 27 32 32 70 32 l44 0 0 -174 c0 -182 -3 -206 -26 -206 -8 0 -14 -4 -14
-10 0 -6 32 -10 78 -9 73 0 76 1 55 16 -22 15 -23 20 -23 199 l0 184 45 0 c43
0 51 -4 80 -45 13 -18 14 -16 15 28 l0 47 -168 0 c-93 0 -172 -3 -175 -7z"/></g>
</svg>